<svg width="50" height="50" viewBox="0 0 50 50" fill="none" xmlns="http://www.w3.org/2000/svg">
<path fill-rule="evenodd" clip-rule="evenodd" d="M32.842 8.3335C34.0025 8.33354 35.1401 8.65669 36.1273 9.26676C37.1146 9.87684 37.9124 10.7497 38.4316 11.7877L41.3191 17.5606C41.8274 17.3522 42.3274 17.1272 42.8191 16.8856C43.3136 16.6386 43.886 16.5982 44.4103 16.7732C44.9346 16.9482 45.3679 17.3244 45.6149 17.8189C45.8619 18.3134 45.9023 18.8858 45.7273 19.4101C45.5522 19.9344 45.1761 20.3678 44.6816 20.6147C44.1808 20.8376 43.6773 21.0543 43.1712 21.2647L45.1732 25.271C45.6078 26.1396 45.8339 27.0976 45.8337 28.0689V33.3335C45.8336 34.2128 45.6481 35.0823 45.2891 35.885C44.9301 36.6877 44.4057 37.4056 43.7503 37.9918V40.6252C43.7503 41.454 43.4211 42.2488 42.835 42.8349C42.249 43.4209 41.4541 43.7502 40.6253 43.7502C39.7965 43.7502 39.0017 43.4209 38.4156 42.8349C37.8296 42.2488 37.5003 41.454 37.5003 40.6252V39.5835H12.5003V40.6252C12.5003 41.454 12.1711 42.2488 11.585 42.8349C10.999 43.4209 10.2041 43.7502 9.37533 43.7502C8.54652 43.7502 7.75167 43.4209 7.16562 42.8349C6.57957 42.2488 6.25033 41.454 6.25033 40.6252V37.9918C4.97116 36.846 4.16699 35.1835 4.16699 33.3335V28.0668C4.16738 27.097 4.39348 26.1405 4.82741 25.2731L6.81283 21.2981C6.31005 21.087 5.81352 20.8599 5.32324 20.6168C4.83122 20.3666 4.45722 19.9331 4.28185 19.4097C4.10648 18.8864 4.14379 18.315 4.38574 17.8189C4.50795 17.574 4.67723 17.3555 4.8839 17.176C5.09058 16.9965 5.3306 16.8595 5.59025 16.7729C5.84989 16.6862 6.12408 16.6515 6.39713 16.6709C6.67018 16.6902 6.93674 16.7632 7.18158 16.8856C7.67463 17.1286 8.17463 17.3536 8.68157 17.5606L11.5691 11.7897C12.0879 10.7514 12.8857 9.8781 13.8729 9.26765C14.8602 8.6572 15.9979 8.33373 17.1587 8.3335H32.842ZM15.6253 27.0835C14.7965 27.0835 14.0017 27.4127 13.4156 27.9988C12.8296 28.5848 12.5003 29.3797 12.5003 30.2085C12.5003 31.0373 12.8296 31.8322 13.4156 32.4182C14.0017 33.0043 14.7965 33.3335 15.6253 33.3335C16.4541 33.3335 17.249 33.0043 17.835 32.4182C18.4211 31.8322 18.7503 31.0373 18.7503 30.2085C18.7503 29.3797 18.4211 28.5848 17.835 27.9988C17.249 27.4127 16.4541 27.0835 15.6253 27.0835ZM34.3753 27.0835C33.5465 27.0835 32.7517 27.4127 32.1656 27.9988C31.5796 28.5848 31.2503 29.3797 31.2503 30.2085C31.2503 31.0373 31.5796 31.8322 32.1656 32.4182C32.7517 33.0043 33.5465 33.3335 34.3753 33.3335C35.2041 33.3335 35.999 33.0043 36.585 32.4182C37.1711 31.8322 37.5003 31.0373 37.5003 30.2085C37.5003 29.3797 37.1711 28.5848 36.585 27.9988C35.999 27.4127 35.2041 27.0835 34.3753 27.0835ZM32.842 12.5002H17.1587C16.8158 12.5001 16.4781 12.5847 16.1758 12.7464C15.8734 12.9081 15.6156 13.142 15.4253 13.4272L15.2962 13.6522L12.6503 18.9397C15.8753 19.9064 20.2212 20.8335 25.0003 20.8335C29.4628 20.8335 33.5441 20.0252 36.6878 19.1314L37.3482 18.9397L34.7045 13.6522C34.5512 13.3456 34.3245 13.0816 34.0447 12.8835C33.7649 12.6854 33.4405 12.5595 33.1003 12.5168L32.8441 12.5002H32.842Z" fill="#4A50E6"/>
</svg>
