<svg width="50" height="50" viewBox="0 0 50 50" fill="none" xmlns="http://www.w3.org/2000/svg">
<path fill-rule="evenodd" clip-rule="evenodd" d="M26.3962 4.61868L44.1045 14.5145C44.6243 14.774 45.0615 15.1733 45.367 15.6676C45.6724 16.1618 45.834 16.7314 45.8337 17.3124V20.3124C45.8337 21.7499 44.667 22.9166 43.2295 22.9166H41.667V39.5833H43.7503C44.3029 39.5833 44.8328 39.8027 45.2235 40.1935C45.6142 40.5841 45.8337 41.1141 45.8337 41.6666C45.8337 42.2191 45.6142 42.749 45.2235 43.1397C44.8328 43.5304 44.3029 43.7499 43.7503 43.7499H6.25033C5.69779 43.7499 5.16789 43.5304 4.77719 43.1397C4.38649 42.749 4.16699 42.2191 4.16699 41.6666C4.16699 41.1141 4.38649 40.5841 4.77719 40.1935C5.16789 39.8027 5.69779 39.5833 6.25033 39.5833H8.33366V22.9166H6.77116C5.33366 22.9166 4.16699 21.7499 4.16699 20.3124V17.3124C4.16699 16.2249 4.72949 15.2249 5.63783 14.6583L23.6024 4.61868C24.0364 4.40159 24.515 4.28857 25.0003 4.28857C25.4856 4.28857 25.9621 4.40159 26.3962 4.61868ZM35.417 22.9166H14.5837V39.5833H18.7503V27.0833H22.917V39.5833H27.0837V27.0833H31.2503V39.5833H35.417V22.9166ZM25.0003 12.4999C24.4478 12.4999 23.9179 12.7194 23.5272 13.1101C23.1365 13.5008 22.917 14.0307 22.917 14.5833C22.917 15.1358 23.1365 15.6657 23.5272 16.0564C23.9179 16.4471 24.4478 16.6666 25.0003 16.6666C25.5529 16.6666 26.0828 16.4471 26.4735 16.0564C26.8642 15.6657 27.0837 15.1358 27.0837 14.5833C27.0837 14.0307 26.8642 13.5008 26.4735 13.1101C26.0828 12.7194 25.5529 12.4999 25.0003 12.4999Z" fill="#FFD877"/>
</svg>
