<svg width="50" height="50" viewBox="0 0 50 50" fill="none" xmlns="http://www.w3.org/2000/svg">
<path d="M10.4167 39.5832C10.4167 40.1357 10.6362 40.6656 11.0269 41.0563C11.4176 41.447 11.9475 41.6665 12.5 41.6665H37.5C38.0525 41.6665 38.5824 41.447 38.9731 41.0563C39.3638 40.6656 39.5833 40.1357 39.5833 39.5832C39.5833 39.1457 39.4375 38.729 39.2083 38.3957L27.0833 17.3957V8.33317H22.9167V17.3957L10.7917 38.3957C10.5625 38.729 10.4167 39.1457 10.4167 39.5832ZM12.5 45.8332C10.8424 45.8332 9.25269 45.1747 8.08058 44.0026C6.90848 42.8305 6.25 41.2408 6.25 39.5832C6.25 38.3332 6.625 37.1665 7.29167 36.1873L18.75 16.2707V12.4998C18.1975 12.4998 17.6676 12.2803 17.2769 11.8896C16.8862 11.4989 16.6667 10.969 16.6667 10.4165V8.33317C16.6667 7.2281 17.1057 6.16829 17.8871 5.38689C18.6685 4.60549 19.7283 4.1665 20.8333 4.1665H29.1667C30.2717 4.1665 31.3315 4.60549 32.1129 5.38689C32.8943 6.16829 33.3333 7.2281 33.3333 8.33317V10.4165C33.3333 10.969 33.1138 11.4989 32.7231 11.8896C32.3324 12.2803 31.8025 12.4998 31.25 12.4998V16.2707L42.7083 36.1873C43.375 37.1665 43.75 38.3332 43.75 39.5832C43.75 41.2408 43.0915 42.8305 41.9194 44.0026C40.7473 45.1747 39.1576 45.8332 37.5 45.8332H12.5ZM27.0833 33.3332L29.875 30.5415L33.8958 37.4998H16.1042L21.6458 27.8957L27.0833 33.3332ZM26.0417 24.9998C26.3179 24.9998 26.5829 25.1096 26.7782 25.3049C26.9736 25.5003 27.0833 25.7652 27.0833 26.0415C27.0833 26.3178 26.9736 26.5827 26.7782 26.7781C26.5829 26.9734 26.3179 27.0832 26.0417 27.0832C25.7654 27.0832 25.5004 26.9734 25.3051 26.7781C25.1097 26.5827 25 26.3178 25 26.0415C25 25.7652 25.1097 25.5003 25.3051 25.3049C25.5004 25.1096 25.7654 24.9998 26.0417 24.9998Z" fill="#68C99F"/>
</svg>
