<svg width="50" height="50" viewBox="0 0 50 50" fill="none" xmlns="http://www.w3.org/2000/svg">
<path d="M18.3747 35.4165L27.083 40.1665V45.8332H12.4997C10.1872 45.8332 8.33301 43.979 8.33301 41.6665V8.33317C8.33301 7.2281 8.77199 6.16829 9.5534 5.38689C10.3348 4.60549 11.3946 4.1665 12.4997 4.1665H14.583V18.7498L19.7913 15.6248L24.9997 18.7498V4.1665H37.4997C38.6047 4.1665 39.6645 4.60549 40.4459 5.38689C41.2274 6.16829 41.6663 7.2281 41.6663 8.33317V26.1248L38.5413 24.4165L18.3747 35.4165ZM49.9997 35.4165L38.5413 29.1665L27.083 35.4165L38.5413 41.6665L49.9997 35.4165ZM31.2497 39.7707V43.9373L38.5413 47.9165L45.833 43.9373V39.7707L38.5413 43.7498L31.2497 39.7707Z" fill="#68C99F"/>
</svg>
