<svg width="50" height="50" viewBox="0 0 50 50" fill="none" xmlns="http://www.w3.org/2000/svg">
<path d="M2.1875 43.75V37.9167C2.1875 36.7708 2.48264 35.6944 3.07292 34.6875C3.66319 33.6806 4.47917 32.9167 5.52083 32.3958C7.29167 31.4931 9.28819 30.7292 11.5104 30.1042C13.7326 29.4792 16.1806 29.1667 18.8542 29.1667C21.5278 29.1667 23.9757 29.4792 26.1979 30.1042C28.4201 30.7292 30.4167 31.4931 32.1875 32.3958C33.2292 32.9167 34.0451 33.6806 34.6354 34.6875C35.2257 35.6944 35.5208 36.7708 35.5208 37.9167V43.75H2.1875ZM18.8542 27.0833C16.5625 27.0833 14.6007 26.2674 12.9688 24.6354C11.3368 23.0035 10.5208 21.0417 10.5208 18.75H10C9.6875 18.75 9.43611 18.6549 9.24583 18.4646C9.05556 18.2743 8.95972 18.0222 8.95833 17.7083C8.95694 17.3944 9.05278 17.1424 9.24583 16.9521C9.43889 16.7618 9.69028 16.6667 10 16.6667H10.5208C10.5208 15.1042 10.9028 13.6979 11.6667 12.4479C12.4306 11.1979 13.4375 10.2083 14.6875 9.47917V11.4583C14.6875 11.7708 14.7833 12.0229 14.975 12.2146C15.1667 12.4062 15.4181 12.5014 15.7292 12.5C16.0403 12.4986 16.2924 12.4035 16.4854 12.2146C16.6785 12.0257 16.7736 11.7736 16.7708 11.4583V8.64583C17.0833 8.54167 17.4132 8.46389 17.7604 8.4125C18.1076 8.36111 18.4722 8.33472 18.8542 8.33333C19.2361 8.33194 19.6007 8.35833 19.9479 8.4125C20.2951 8.46667 20.625 8.54444 20.9375 8.64583V11.4583C20.9375 11.7708 21.0333 12.0229 21.225 12.2146C21.4167 12.4062 21.6681 12.5014 21.9792 12.5C22.2903 12.4986 22.5424 12.4035 22.7354 12.2146C22.9285 12.0257 23.0236 11.7736 23.0208 11.4583V9.47917C24.2708 10.2083 25.2778 11.1979 26.0417 12.4479C26.8056 13.6979 27.1875 15.1042 27.1875 16.6667H27.7083C28.0208 16.6667 28.2729 16.7625 28.4646 16.9542C28.6562 17.1458 28.7514 17.3972 28.75 17.7083C28.7486 18.0194 28.6535 18.2715 28.4646 18.4646C28.2757 18.6576 28.0236 18.7528 27.7083 18.75H27.1875C27.1875 21.0417 26.3715 23.0035 24.7396 24.6354C23.1076 26.2674 21.1458 27.0833 18.8542 27.0833ZM18.8542 22.9167C20 22.9167 20.9812 22.509 21.7979 21.6937C22.6146 20.8785 23.0222 19.8972 23.0208 18.75H14.6875C14.6875 19.8958 15.0958 20.8771 15.9125 21.6937C16.7292 22.5104 17.7097 22.9181 18.8542 22.9167ZM34.4792 31.25L34.1667 29.6875C33.9583 29.6181 33.759 29.5403 33.5688 29.4542C33.3785 29.3681 33.1958 29.2375 33.0208 29.0625L31.5625 29.5833L30.5208 27.7083L31.6667 26.6667V25.4167L30.5208 24.375L31.5625 22.5L33.0208 23.0208C33.1597 22.8819 33.3333 22.7604 33.5417 22.6562C33.75 22.5521 33.9583 22.4653 34.1667 22.3958L34.4792 20.8333H36.5625L36.875 22.3958C37.0833 22.4653 37.2917 22.5521 37.5 22.6562C37.7083 22.7604 37.8819 22.8819 38.0208 23.0208L39.4792 22.5L40.5208 24.375L39.375 25.4167V26.6667L40.5208 27.7083L39.4792 29.5833L38.0208 29.0625C37.8472 29.2361 37.6653 29.3667 37.475 29.4542C37.2847 29.5417 37.0847 29.6194 36.875 29.6875L36.5625 31.25H34.4792ZM35.5208 27.6042C35.9375 27.6042 36.3021 27.4479 36.6146 27.1354C36.9271 26.8229 37.0833 26.4583 37.0833 26.0417C37.0833 25.625 36.9271 25.2604 36.6146 24.9479C36.3021 24.6354 35.9375 24.4792 35.5208 24.4792C35.1042 24.4792 34.7396 24.6354 34.4271 24.9479C34.1146 25.2604 33.9583 25.625 33.9583 26.0417C33.9583 26.4583 34.1146 26.8229 34.4271 27.1354C34.7396 27.4479 35.1042 27.6042 35.5208 27.6042ZM39.2708 20.8333L38.8542 18.6458C38.5417 18.5417 38.2556 18.4118 37.9958 18.2562C37.7361 18.1007 37.5014 17.9181 37.2917 17.7083L35.1042 18.4375L33.6458 15.9375L35.4167 14.375C35.3472 14.2014 35.3125 14.0625 35.3125 13.9583V13.125C35.3125 13.0208 35.3472 12.8819 35.4167 12.7083L33.6458 11.1458L35.1042 8.64583L37.2917 9.375C37.5 9.16667 37.7347 8.98403 37.9958 8.82708C38.2569 8.67014 38.5431 8.54028 38.8542 8.4375L39.2708 6.25H42.1875L42.6042 8.4375C42.9167 8.54167 43.2035 8.67222 43.4646 8.82917C43.7257 8.98611 43.9597 9.16806 44.1667 9.375L46.3542 8.64583L47.8125 11.1458L46.0417 12.7083C46.1111 12.8819 46.1458 13.0208 46.1458 13.125V13.9583C46.1458 14.0625 46.1111 14.2014 46.0417 14.375L47.8125 15.9375L46.3542 18.4375L44.1667 17.7083C43.9583 17.9167 43.7243 18.0993 43.4646 18.2562C43.2049 18.4132 42.9181 18.5431 42.6042 18.6458L42.1875 20.8333H39.2708ZM40.7292 16.1458C41.4583 16.1458 42.075 15.8938 42.5792 15.3896C43.0833 14.8854 43.3347 14.2694 43.3333 13.5417C43.3319 12.8139 43.0799 12.1972 42.5771 11.6917C42.0743 11.1861 41.4583 10.9347 40.7292 10.9375C40 10.9403 39.3833 11.1924 38.8792 11.6937C38.375 12.1951 38.1236 12.8111 38.125 13.5417C38.1264 14.2722 38.3785 14.8889 38.8813 15.3917C39.384 15.8944 40 16.1458 40.7292 16.1458Z" fill="#68C99F"/>
</svg>
