<svg width="50" height="50" viewBox="0 0 50 50" fill="none" xmlns="http://www.w3.org/2000/svg">
<path d="M21.2301 2.67871C18.5055 2.72461 16.0445 4.34961 14.9313 6.8623L28.2613 10.8887C28.8473 7.39356 26.7477 4.00488 23.3688 2.97656C22.7633 2.79297 22.1285 2.69238 21.4938 2.67871H21.2301ZM14.4235 8.5459C13.8278 12.0508 15.9274 15.4492 19.316 16.4746C22.7145 17.5 26.3375 15.8203 27.7633 12.5684L14.4235 8.5459ZM40.3512 12.8711C37.8805 12.8809 35.2535 14.0723 33.2711 16.875L21.0836 34.1504C17.8121 38.7793 19.2379 43.6231 22.4606 45.9082C25.693 48.2031 30.7223 47.9395 33.9938 43.3106L46.1715 26.0449C49.443 21.4063 48.0172 16.5723 44.7946 14.2773C43.5836 13.418 42.1285 12.9199 40.5953 12.8711H40.3512ZM40.1754 14.5605C40.3024 14.5605 40.4293 14.5605 40.5465 14.5703C41.7281 14.6191 42.8414 15.0391 43.7789 15.7129C46.2887 17.4902 47.5485 21.0352 44.7262 25.0293L38.4274 33.9648C34.9313 33.0273 30.4391 29.834 28.3981 26.8359L34.7164 17.8906C36.3668 15.5566 38.3297 14.5996 40.1754 14.5605ZM8.91076 22.002C7.97131 22.0117 7.04455 22.207 6.18322 22.5879C2.94982 24.0039 1.26721 27.6172 2.25353 31.0156L15.0192 25.4395C13.7399 23.2813 11.4156 21.9727 8.91076 22.002ZM15.7125 27.041L2.94885 32.627C4.7506 35.6934 8.54455 36.9238 11.7965 35.5078C15.0387 34.082 16.7184 30.4492 15.7125 27.041Z" fill="#F83410"/>
</svg>
