<svg width="50" height="50" viewBox="0 0 50 50" fill="none" xmlns="http://www.w3.org/2000/svg">
<path d="M43.7503 14.5835C44.3029 14.5835 44.8328 14.803 45.2235 15.1937C45.6142 15.5844 45.8337 16.1143 45.8337 16.6668C45.8337 17.2194 45.6142 17.7493 45.2235 18.14C44.8328 18.5307 44.3029 18.7502 43.7503 18.7502V39.5835C44.3029 39.5835 44.8328 39.803 45.2235 40.1937C45.6142 40.5844 45.8337 41.1143 45.8337 41.6668C45.8337 42.2194 45.6142 42.7493 45.2235 43.14C44.8328 43.5307 44.3029 43.7502 43.7503 43.7502H6.25033C5.69779 43.7502 5.16789 43.5307 4.77719 43.14C4.38649 42.7493 4.16699 42.2194 4.16699 41.6668C4.16699 41.1143 4.38649 40.5844 4.77719 40.1937C5.16789 39.803 5.69779 39.5835 6.25033 39.5835V18.7502C5.69779 18.7502 5.16789 18.5307 4.77719 18.14C4.38649 17.7493 4.16699 17.2194 4.16699 16.6668C4.16699 16.1143 4.38649 15.5844 4.77719 15.1937C5.16789 14.803 5.69779 14.5835 6.25033 14.5835H43.7503ZM14.5837 22.9168C14.0311 22.9168 13.5012 23.1363 13.1105 23.527C12.7198 23.9177 12.5003 24.4476 12.5003 25.0002V39.5835H16.667V25.0002C16.667 24.4476 16.4475 23.9177 16.0568 23.527C15.6661 23.1363 15.1362 22.9168 14.5837 22.9168ZM25.0003 22.9168C24.4478 22.9168 23.9179 23.1363 23.5272 23.527C23.1365 23.9177 22.917 24.4476 22.917 25.0002V39.5835H27.0837V25.0002C27.0837 24.4476 26.8642 23.9177 26.4735 23.527C26.0828 23.1363 25.5529 22.9168 25.0003 22.9168ZM35.417 22.9168C34.8645 22.9168 34.3346 23.1363 33.9438 23.527C33.5532 23.9177 33.3337 24.4476 33.3337 25.0002V39.5835H37.5003V25.0002C37.5003 24.4476 37.2808 23.9177 36.8901 23.527C36.4994 23.1363 35.9695 22.9168 35.417 22.9168ZM37.5003 8.3335C38.0529 8.3335 38.5828 8.55299 38.9735 8.94369C39.3642 9.33439 39.5837 9.8643 39.5837 10.4168C39.5837 10.9694 39.3642 11.4993 38.9735 11.89C38.5828 12.2807 38.0529 12.5002 37.5003 12.5002H12.5003C11.9478 12.5002 11.4179 12.2807 11.0272 11.89C10.6365 11.4993 10.417 10.9694 10.417 10.4168C10.417 9.8643 10.6365 9.33439 11.0272 8.94369C11.4179 8.55299 11.9478 8.3335 12.5003 8.3335H37.5003Z" fill="#F83410"/>
</svg>
