<svg width="50" height="50" viewBox="0 0 50 50" fill="none" xmlns="http://www.w3.org/2000/svg">
<path d="M37.5 41.6667L45.4667 33.7C45.7012 33.4658 45.833 33.1481 45.8333 32.8167V21.875C45.8333 21.0462 45.5041 20.2513 44.918 19.6653C44.332 19.0792 43.5371 18.75 42.7083 18.75C41.8795 18.75 41.0847 19.0792 40.4986 19.6653C39.9126 20.2513 39.5833 21.0462 39.5833 21.875V31.25" stroke="#FFD877" stroke-width="3.125" stroke-linecap="round" stroke-linejoin="round"/>
<path d="M37.5003 33.3333L39.2878 31.5458C39.3821 31.4523 39.4568 31.341 39.5076 31.2183C39.5584 31.0956 39.5843 30.964 39.5837 30.8312C39.5822 30.6442 39.5293 30.4611 39.4309 30.302C39.3324 30.1429 39.1921 30.0139 39.0253 29.9292L38.1024 29.4688C37.3205 29.0778 36.4355 28.9427 35.5725 29.0825C34.7096 29.2223 33.9125 29.6301 33.2941 30.2479L31.4295 32.1125C30.648 32.8937 30.2089 33.9534 30.2087 35.0583V41.6667M12.5003 41.6667L4.53366 33.7C4.29917 33.4658 4.16728 33.1481 4.16699 32.8167V21.875C4.16699 21.0462 4.49623 20.2513 5.08228 19.6653C5.66833 19.0792 6.46319 18.75 7.29199 18.75C8.12079 18.75 8.91565 19.0792 9.5017 19.6653C10.0878 20.2513 10.417 21.0462 10.417 21.875V31.25" stroke="#FFD877" stroke-width="3.125" stroke-linecap="round" stroke-linejoin="round"/>
<path d="M12.5003 33.3335L10.7128 31.546C10.5262 31.3546 10.4202 31.0987 10.417 30.8314C10.417 30.4502 10.6337 30.1022 10.9753 29.9293L11.8982 29.4689C12.6801 29.078 13.5652 28.9428 14.4281 29.0827C15.2911 29.2225 16.0882 29.6302 16.7066 30.2481L18.5712 32.1127C19.3526 32.8939 19.7918 33.9535 19.792 35.0585V41.6668M28.4732 25.0002H21.5274V20.1397H16.667V13.1939H21.5274V8.3335H28.4732V13.1939H33.3337V20.1397H28.4732V25.0002Z" stroke="#FFD877" stroke-width="3.125" stroke-linecap="round" stroke-linejoin="round"/>
</svg>
