<svg width="50" height="50" viewBox="0 0 50 50" fill="none" xmlns="http://www.w3.org/2000/svg">
<path d="M45.3125 31.25H39.0625V19.793C40.5646 21.6459 42.5139 23.0857 44.7266 23.9766C45.109 24.1239 45.5341 24.1151 45.9102 23.952C46.2862 23.7889 46.5831 23.4845 46.7368 23.1046C46.8905 22.7246 46.8888 22.2994 46.732 21.9207C46.5751 21.542 46.2758 21.2401 45.8984 21.0801C43.8748 20.2677 42.1415 18.8668 40.9228 17.0586C39.7041 15.2504 39.056 13.1181 39.0625 10.9375C39.0625 10.5231 38.8979 10.1257 38.6049 9.83265C38.3118 9.53962 37.9144 9.375 37.5 9.375C37.0856 9.375 36.6882 9.53962 36.3951 9.83265C36.1021 10.1257 35.9375 10.5231 35.9375 10.9375C35.9375 13.8383 34.7852 16.6203 32.734 18.6715C30.6828 20.7227 27.9008 21.875 25 21.875C22.0992 21.875 19.3172 20.7227 17.266 18.6715C15.2148 16.6203 14.0625 13.8383 14.0625 10.9375C14.0625 10.5231 13.8979 10.1257 13.6049 9.83265C13.3118 9.53962 12.9144 9.375 12.5 9.375C12.0856 9.375 11.6882 9.53962 11.3951 9.83265C11.1021 10.1257 10.9375 10.5231 10.9375 10.9375C10.944 13.1181 10.2959 15.2504 9.07719 17.0586C7.85847 18.8668 6.12518 20.2677 4.10156 21.0801C3.72421 21.2401 3.42485 21.542 3.26803 21.9207C3.1112 22.2994 3.10947 22.7246 3.2632 23.1046C3.41693 23.4845 3.71381 23.7889 4.08985 23.952C4.46588 24.1151 4.89096 24.1239 5.27344 23.9766C7.48612 23.0857 9.43543 21.6459 10.9375 19.793V31.25H4.6875C4.2731 31.25 3.87567 31.4146 3.58265 31.7076C3.28962 32.0007 3.125 32.3981 3.125 32.8125C3.125 33.2269 3.28962 33.6243 3.58265 33.9174C3.87567 34.2104 4.2731 34.375 4.6875 34.375H10.9375V39.0625C10.9375 39.4769 11.1021 39.8743 11.3951 40.1674C11.6882 40.4604 12.0856 40.625 12.5 40.625C12.9144 40.625 13.3118 40.4604 13.6049 40.1674C13.8979 39.8743 14.0625 39.4769 14.0625 39.0625V34.375H35.9375V39.0625C35.9375 39.4769 36.1021 39.8743 36.3951 40.1674C36.6882 40.4604 37.0856 40.625 37.5 40.625C37.9144 40.625 38.3118 40.4604 38.6049 40.1674C38.8979 39.8743 39.0625 39.4769 39.0625 39.0625V34.375H45.3125C45.7269 34.375 46.1243 34.2104 46.4174 33.9174C46.7104 33.6243 46.875 33.2269 46.875 32.8125C46.875 32.3981 46.7104 32.0007 46.4174 31.7076C46.1243 31.4146 45.7269 31.25 45.3125 31.25ZM28.125 24.6484V31.25H21.875V24.6484C23.932 25.1173 26.068 25.1173 28.125 24.6484ZM14.0625 19.7656C15.3376 21.3412 16.9361 22.6247 18.75 23.5293V31.25H14.0625V19.7656ZM31.25 31.25V23.5313C33.0639 22.6266 34.6624 21.3432 35.9375 19.7676V31.25H31.25Z" fill="#4A50E6"/>
</svg>
