<svg width="50" height="50" viewBox="0 0 50 50" fill="none" xmlns="http://www.w3.org/2000/svg">
<path fill-rule="evenodd" clip-rule="evenodd" d="M3.75 25C3.75 27.7906 4.29965 30.5539 5.36756 33.132C6.43547 35.7102 8.00074 38.0528 9.97398 40.026C11.9472 41.9993 14.2898 43.5645 16.868 44.6324C19.4461 45.7004 22.2094 46.25 25 46.25C27.7906 46.25 30.5539 45.7004 33.132 44.6324C35.7102 43.5645 38.0528 41.9993 40.026 40.026C41.9993 38.0528 43.5645 35.7102 44.6324 33.132C45.7004 30.5539 46.25 27.7906 46.25 25C46.25 19.3641 44.0112 13.9591 40.026 9.97398C36.0409 5.98883 30.6359 3.75 25 3.75C19.3641 3.75 13.9591 5.98883 9.97398 9.97398C5.98883 13.9591 3.75 19.3641 3.75 25ZM43.75 25C43.75 29.9728 41.7746 34.7419 38.2583 38.2583C34.7419 41.7746 29.9728 43.75 25 43.75C20.0272 43.75 15.2581 41.7746 11.7417 38.2583C8.22544 34.7419 6.25 29.9728 6.25 25C6.25 20.0272 8.22544 15.2581 11.7417 11.7417C15.2581 8.22544 20.0272 6.25 25 6.25C29.9728 6.25 34.7419 8.22544 38.2583 11.7417C41.7746 15.2581 43.75 20.0272 43.75 25Z" fill="#FFD877"/>
<path fill-rule="evenodd" clip-rule="evenodd" d="M16.25 25C16.25 35.99 19.855 45 25 45C30.145 45 33.75 35.99 33.75 25C33.75 14.01 30.145 5 25 5C19.855 5 16.25 14.01 16.25 25ZM31.25 25C31.25 34.7225 28.1375 42.5 25 42.5C21.8625 42.5 18.75 34.7225 18.75 25C18.75 15.2775 21.8625 7.5 25 7.5C28.1375 7.5 31.25 15.2775 31.25 25Z" fill="#FFD877"/>
<path d="M9.3375 13.2798L11.0125 11.4248C11.2792 11.6648 11.565 11.899 11.87 12.1273C15.165 14.5973 20.365 16.1023 26.0325 16.1023C30.865 16.1023 35.375 15.0098 38.67 13.1273C39.4291 12.6976 40.1464 12.198 40.8125 11.6348L42.4375 13.5348C41.6908 14.1731 40.8492 14.7598 39.9125 15.2948C36.22 17.4073 31.2825 18.6023 26.0325 18.6023C19.8575 18.6023 14.1275 16.9448 10.37 14.1273C10.0134 13.8595 9.66886 13.5783 9.3375 13.2798ZM9.3375 36.7498L11.0125 38.5998C11.2792 38.3581 11.565 38.1248 11.87 37.8998C15.165 35.4298 20.365 33.9248 26.0325 33.9248C30.865 33.9248 35.375 35.0148 38.67 36.8998C39.4733 37.3615 40.1875 37.8581 40.8125 38.3898L42.4375 36.4898C41.6525 35.8257 40.8072 35.2365 39.9125 34.7298C36.22 32.6198 31.2825 31.4248 26.0325 31.4248C19.8575 31.4248 14.1275 33.0823 10.37 35.8973C10.0033 36.1723 9.65917 36.4581 9.3375 36.7498ZM5 26.2498V23.7498H45V26.2498H5Z" fill="#FFD877"/>
</svg>
