<svg width="50" height="50" viewBox="0 0 50 50" fill="none" xmlns="http://www.w3.org/2000/svg">
<path d="M31.4698 8.36768L5.99951 21.9451L1.98145 32.6814L2.68779 33.0574L17.6949 41.0457L47.8214 25.0091L44.1347 15.2529L31.4698 8.36768ZM43.0943 17.6633L45.5465 24.1525L35.5309 29.484L42.0306 18.2267L43.0943 17.6632V17.6633ZM34.3467 22.2938L27.8281 33.5841L23.7588 35.7503L30.8091 24.1663L34.3467 22.2937V22.2938ZM7.06865 24.295L9.82353 25.7533L4.54893 31.0279L7.06865 24.295ZM27.6572 25.8348L20.6243 37.3897L20.6497 37.4054L18.9692 38.2999L19.5352 30.1341L27.6572 25.8348ZM11.5113 26.6465L13.1679 27.5234L7.26504 33.4263L5.61172 32.5462L11.5113 26.6465ZM17.7171 29.9708L17.1142 38.669L11.831 35.8567L17.7171 29.9708Z" fill="#4A50E6"/>
</svg>
