<svg width="50" height="50" viewBox="0 0 50 50" fill="none" xmlns="http://www.w3.org/2000/svg">
<path d="M19.5149 39.7501L4.87949 20.9168H12.8712L19.5149 39.7501ZM31.9878 20.9168L24.9878 43.721L16.917 20.9147L31.9878 20.9168ZM45.0712 20.9168L30.0524 40.2335L36.0087 20.9147L45.0712 20.9168ZM45.8337 17.096H36.0337L33.0545 6.2793H38.5795C38.6899 6.30323 38.7943 6.34936 38.8864 6.4149C38.9784 6.48044 39.0562 6.56402 39.1149 6.66055L45.8337 17.096ZM32.0899 17.096H16.9441L20.7628 6.3043H29.0857L32.0899 17.096ZM16.6899 6.33138L12.8982 17.096H4.16699L10.6837 6.9168L10.8857 6.68763C10.9783 6.58044 11.0917 6.49325 11.2191 6.43138C11.3358 6.406 11.4565 6.406 11.5732 6.43138L16.6899 6.33138Z" fill="#FFD877"/>
</svg>
