<svg width="50" height="50" viewBox="0 0 50 50" fill="none" xmlns="http://www.w3.org/2000/svg">
<path d="M6.24967 28.1252L4.68717 25.0002H15.6247L14.3747 21.8752H4.16634L2.60384 18.7502H18.8538L17.6038 15.6252H2.31217L0.520508 12.5002H8.33301C8.33301 11.3951 8.77199 10.3353 9.5534 9.55388C10.3348 8.77248 11.3946 8.3335 12.4997 8.3335H37.4997V16.6668H43.7497L49.9997 25.0002V35.4168H45.833C45.833 37.0744 45.1745 38.6641 44.0024 39.8362C42.8303 41.0084 41.2406 41.6668 39.583 41.6668C37.9254 41.6668 36.3357 41.0084 35.1636 39.8362C33.9915 38.6641 33.333 37.0744 33.333 35.4168H24.9997C24.9997 37.0744 24.3412 38.6641 23.1691 39.8362C21.997 41.0084 20.4073 41.6668 18.7497 41.6668C17.0921 41.6668 15.5024 41.0084 14.3303 39.8362C13.1582 38.6641 12.4997 37.0744 12.4997 35.4168H8.33301V28.1252H6.24967ZM39.583 38.5418C40.4118 38.5418 41.2067 38.2126 41.7927 37.6265C42.3788 37.0405 42.708 36.2456 42.708 35.4168C42.708 34.588 42.3788 33.7932 41.7927 33.2071C41.2067 32.6211 40.4118 32.2918 39.583 32.2918C38.7542 32.2918 37.9594 32.6211 37.3733 33.2071C36.7872 33.7932 36.458 34.588 36.458 35.4168C36.458 36.2456 36.7872 37.0405 37.3733 37.6265C37.9594 38.2126 38.7542 38.5418 39.583 38.5418ZM42.708 19.7918H37.4997V25.0002H46.7913L42.708 19.7918ZM18.7497 38.5418C19.5785 38.5418 20.3733 38.2126 20.9594 37.6265C21.5454 37.0405 21.8747 36.2456 21.8747 35.4168C21.8747 34.588 21.5454 33.7932 20.9594 33.2071C20.3733 32.6211 19.5785 32.2918 18.7497 32.2918C17.9209 32.2918 17.126 32.6211 16.54 33.2071C15.9539 33.7932 15.6247 34.588 15.6247 35.4168C15.6247 36.2456 15.9539 37.0405 16.54 37.6265C17.126 38.2126 17.9209 38.5418 18.7497 38.5418Z" fill="#68C99F"/>
</svg>
