<svg width="50" height="50" viewBox="0 0 50 50" fill="none" xmlns="http://www.w3.org/2000/svg">
<path d="M6.24967 45.8332C8.54134 45.8332 10.4163 43.9582 10.4163 41.6665V27.0832C10.4163 24.7915 8.54134 22.9165 6.24967 22.9165C3.95801 22.9165 2.08301 24.7915 2.08301 27.0832V41.6665C2.08301 43.9582 3.95801 45.8332 6.24967 45.8332ZM23.6872 34.229L26.7497 35.2915C26.9788 35.3748 27.208 35.4165 27.4372 35.4165H41.6663C43.9788 35.4165 45.833 37.2707 45.8538 39.5832L30.458 45.354C29.6247 45.6665 28.708 45.7082 27.8538 45.4582L14.583 41.7082V22.9165H17.9163C18.4163 22.9165 18.9163 22.9998 19.3747 23.1873L33.8122 28.5832C34.3533 28.7842 34.8066 29.1689 35.0928 29.6702C35.3791 30.1714 35.4803 30.7573 35.3785 31.3255C35.2768 31.8937 34.9787 32.4081 34.5363 32.7789C34.0938 33.1496 33.5352 33.3532 32.958 33.354H27.4788C27.2288 33.354 26.9788 33.3123 26.7288 33.2082L24.3955 32.3123C23.8538 32.104 23.2497 32.3957 23.0622 32.9373C22.8747 33.4582 23.1455 34.0415 23.6872 34.229ZM41.9997 12.2915L31.583 4.854C30.1247 3.81234 28.1872 3.81234 26.7497 4.854L16.333 12.2915C15.2288 13.0832 14.583 14.3332 14.583 15.6873V18.7498H17.9372C18.458 18.7498 18.9997 18.854 19.4788 19.0415L35.708 25.5207C38.0413 26.479 39.583 28.729 39.583 31.2498H43.7497V15.6873C43.7497 14.3332 43.1038 13.0832 41.9997 12.2915ZM27.083 20.8332C26.4997 20.8332 26.0413 20.3748 26.0413 19.7915C26.0413 19.2082 26.4997 18.7498 27.083 18.7498C27.6663 18.7498 28.1247 19.2082 28.1247 19.7915C28.1247 20.3748 27.6663 20.8332 27.083 20.8332ZM27.083 16.6665C26.4997 16.6665 26.0413 16.2082 26.0413 15.6248C26.0413 15.0415 26.4997 14.5832 27.083 14.5832C27.6663 14.5832 28.1247 15.0415 28.1247 15.6248C28.1247 16.2082 27.6663 16.6665 27.083 16.6665ZM31.2497 20.8332C30.6663 20.8332 30.208 20.3748 30.208 19.7915C30.208 19.2082 30.6663 18.7498 31.2497 18.7498C31.833 18.7498 32.2913 19.2082 32.2913 19.7915C32.2913 20.3748 31.833 20.8332 31.2497 20.8332ZM31.2497 16.6665C30.6663 16.6665 30.208 16.2082 30.208 15.6248C30.208 15.0415 30.6663 14.5832 31.2497 14.5832C31.833 14.5832 32.2913 15.0415 32.2913 15.6248C32.2913 16.2082 31.833 16.6665 31.2497 16.6665Z" fill="#F83410"/>
</svg>
