<svg width="50" height="50" viewBox="0 0 50 50" fill="none" xmlns="http://www.w3.org/2000/svg">
<path d="M23.958 35.4168C26.5622 35.4168 28.7761 34.5057 30.5997 32.6835C32.4233 30.8613 33.3344 28.6474 33.333 26.0418V16.6668H23.958C21.3538 16.6668 19.1406 17.5786 17.3184 19.4022C15.4962 21.2259 14.5844 23.4391 14.583 26.0418C14.583 26.9446 14.7045 27.8127 14.9476 28.646C15.1906 29.4793 15.5552 30.2779 16.0413 31.0418L15.208 31.8752C14.8261 32.2571 14.6351 32.7432 14.6351 33.3335C14.6351 33.9238 14.8261 34.4099 15.208 34.7918C15.59 35.1738 16.0761 35.3647 16.6663 35.3647C17.2566 35.3647 17.7427 35.1738 18.1247 34.7918L18.958 33.9585C19.7219 34.4446 20.5205 34.8092 21.3538 35.0522C22.1872 35.2953 23.0552 35.4168 23.958 35.4168ZM24.9997 47.9168L17.8122 42.2918L8.80176 41.1981L7.70801 32.1877L2.08301 25.0002L7.70801 17.8127L8.80176 8.80225L17.8122 7.7085L24.9997 2.0835L32.1872 7.7085L41.1976 8.80225L42.2913 17.8127L47.9163 25.0002L42.2913 32.1877L41.1976 41.1981L32.1872 42.2918L24.9997 47.9168ZM26.458 26.4585C26.84 26.0418 27.0309 25.5474 27.0309 24.9752C27.0309 24.4029 26.84 23.9252 26.458 23.5418C26.0761 23.1585 25.599 22.9675 25.0268 22.9689C24.4545 22.9703 23.9594 23.1613 23.5413 23.5418L20.6247 26.4585C20.208 26.8752 19.9997 27.3703 19.9997 27.9439C19.9997 28.5175 20.208 29.012 20.6247 29.4272C21.0413 29.8425 21.5365 30.0509 22.1101 30.0522C22.6837 30.0536 23.1608 29.8453 23.5413 29.4272L26.458 26.4585Z" fill="#4A50E6"/>
</svg>
