<svg width="50" height="50" viewBox="0 0 50 50" fill="none" xmlns="http://www.w3.org/2000/svg">
<path d="M6.02246 11.6992L4.7832 18.3691C4.24902 21.2598 4.68359 24.2383 6.02246 26.8457H11.0059V11.6992H6.02246ZM12.7246 11.6992V22.9883H13.0078C13.6133 22.9883 14.1016 22.4902 14.1016 21.8848V11.6992H12.7246ZM15.8301 11.6992V21.8848C15.8301 23.4375 14.5703 24.6973 13.0078 24.6973H12.7246V32.6758H14.1797V26.8457H16.0938C16.0938 26.8457 16.8359 25.3516 17.4219 24.1406C17.8809 23.2422 18.7988 22.666 19.8145 22.666H27.6465C29.1113 22.666 30.3027 23.8477 30.3027 25.3125V34.248H2.53418L3.56641 40.9375H44.4434L45.4688 34.7754L43.4082 11.6992H15.8301ZM46.1133 13.9844C45.6348 14.0234 45.2832 14.4434 45.332 14.9121L45.752 19.541C45.791 20.0098 46.2109 20.3613 46.6797 20.3223C47.1582 20.2832 47.5 19.8535 47.4609 19.3848L47.0508 14.7656C47.0117 14.3262 46.6406 13.9844 46.2012 13.9844H46.1133ZM37.6367 13.9941C39.7559 13.9941 41.4648 15.7031 41.4648 17.8223C41.4648 19.9414 39.7559 21.6504 37.6367 21.6504C35.5176 21.6504 33.8086 19.9414 33.8086 17.8223C33.8086 15.7031 35.5176 13.9941 37.6367 13.9941ZM37.6367 15.7031C36.4746 15.7031 35.5176 16.6602 35.5176 17.8223C35.5176 18.9941 36.4746 19.9414 37.6367 19.9414C38.7988 19.9414 39.7559 18.9941 39.7559 17.8223C39.7559 16.6602 38.7988 15.7031 37.6367 15.7031ZM37.6367 24.4824C40.2344 24.4824 42.3438 26.6016 42.3438 29.1895C42.3438 31.7871 40.2344 33.8965 37.6367 33.8965C35.0391 33.8965 32.9297 31.7871 32.9297 29.1895C32.9297 26.6016 35.0391 24.4824 37.6367 24.4824ZM37.6367 26.2012C35.9863 26.2012 34.6484 27.5391 34.6484 29.1895C34.6484 30.8398 35.9863 32.168 37.6367 32.168C39.2871 32.168 40.6152 30.8398 40.6152 29.1895C40.6152 27.5391 39.2871 26.2012 37.6367 26.2012ZM9.05371 28.1055V29.8242H11.0156V28.1055H9.05371ZM3.56641 42.8613V45.4492H44.4238V42.8613H3.56641Z" fill="#F83410"/>
</svg>
