<svg width="50" height="50" viewBox="0 0 50 50" fill="none" xmlns="http://www.w3.org/2000/svg">
<g clip-path="url(#clip0_2822_5712)">
<path d="M42.7882 3.90581C41.415 4.04521 40.0745 4.41105 38.8209 4.9885L9.43819 18.0885C8.56703 18.4789 7.96511 18.0308 7.15357 17.427C5.74011 16.3885 3.6478 14.9193 3.00742 14.4231C1.99588 13.6481 -0.511814 14.127 0.180494 15.6847L3.84588 23.9173C5.04972 26.6097 11.3074 25.9673 22.2363 21.0943C23.1651 20.6789 24.3747 20.1193 25.4209 19.652L22.6555 34.375C22.2997 35.8039 22.6651 36.2058 23.1363 35.9981L24.7593 35.277C25.5978 34.902 26.7593 33.5981 27.344 32.3308L35.2766 15.2039C43.1805 11.5116 50.4132 7.80773 49.8786 6.61158C49.2497 5.19235 46.5113 3.55966 42.7882 3.90581ZM13.5209 5.8885C12.8093 5.87696 12.1978 5.94427 11.7786 6.13081L10.1555 6.85004C9.68626 7.06158 9.75549 7.60004 11.0574 8.29235L17.6074 12.2597L24.8786 9.0135L15.6863 6.19043C14.9814 5.99276 14.2529 5.88991 13.5209 5.8885ZM1.56319 46.1539C1.05315 46.2016 0.582956 46.4499 0.25603 46.8443C-0.0708967 47.2387 -0.227771 47.7467 -0.180083 48.2568C-0.132395 48.7668 0.115949 49.237 0.510316 49.5639C0.904683 49.8909 1.41277 50.0477 1.9228 50H48.0766C48.5867 50 49.0758 49.7974 49.4365 49.4368C49.7971 49.0761 49.9997 48.587 49.9997 48.077C49.9997 47.5669 49.7971 47.0778 49.4365 46.7171C49.0758 46.3565 48.5867 46.1539 48.0766 46.1539H1.9228C1.86258 46.1511 1.80226 46.1511 1.74203 46.1539C1.68181 46.1511 1.62149 46.1511 1.56126 46.1539H1.56319ZM1734.61 2825V2828.85H1784.61V2825H1734.61ZM1742.31 2834.62V2838.46H1776.92V2834.62H1742.31ZM1734.61 2844.23V2848.08H1784.61V2844.23H1734.61ZM1742.31 2853.85V2857.69H1776.92V2853.85H1742.31ZM1734.61 2863.46V2867.31H1784.61V2863.46H1734.61Z" fill="#4A50E6"/>
</g>
<defs>
<clipPath id="clip0_2822_5712">
<rect width="50" height="50" fill="white"/>
</clipPath>
</defs>
</svg>
